<svg xmlns="http://www.w3.org/2000/svg" xmlns:xlink="http://www.w3.org/1999/xlink" width="1160"
    zoomAndPan="magnify" viewBox="0 0 870 269.999989" height="360"
    preserveAspectRatio="xMidYMid meet" version="1.0">
    <defs>
        <g />
    </defs>
    <g fill="#4af626" fill-opacity="1">
        <g transform="translate(12.322282, 205.555259)">
            <g>
                <path
                    d="M 104.765625 -50.953125 C 104.765625 -42.992188 103.503906 -35.757812 100.984375 -29.25 C 98.460938 -22.75 94.84375 -17.144531 90.125 -12.4375 C 85.414062 -7.726562 79.773438 -4.054688 73.203125 -1.421875 C 66.628906 1.203125 59.285156 2.515625 51.171875 2.515625 C 43.210938 2.515625 35.941406 1.203125 29.359375 -1.421875 C 22.785156 -4.054688 17.144531 -7.726562 12.4375 -12.4375 C 7.726562 -17.144531 4.113281 -22.75 1.59375 -29.25 C -0.925781 -35.757812 -2.1875 -42.992188 -2.1875 -50.953125 C -2.1875 -58.703125 -0.925781 -65.878906 1.59375 -72.484375 C 4.113281 -79.097656 7.726562 -84.796875 12.4375 -89.578125 C 17.144531 -94.367188 22.785156 -98.0625 29.359375 -100.65625 C 35.941406 -103.25 43.210938 -104.546875 51.171875 -104.546875 C 59.285156 -104.546875 66.628906 -103.25 73.203125 -100.65625 C 79.773438 -98.0625 85.414062 -94.367188 90.125 -89.578125 C 94.84375 -84.796875 98.460938 -79.097656 100.984375 -72.484375 C 103.503906 -65.878906 104.765625 -58.703125 104.765625 -50.953125 Z M 82.1875 -50.953125 C 82.1875 -55.554688 81.472656 -59.921875 80.046875 -64.046875 C 78.628906 -68.179688 76.566406 -71.707031 73.859375 -74.625 C 71.160156 -77.550781 67.890625 -79.875 64.046875 -81.59375 C 60.210938 -83.3125 55.921875 -84.171875 51.171875 -84.171875 C 46.347656 -84.171875 42.035156 -83.3125 38.234375 -81.59375 C 34.441406 -79.875 31.226562 -77.550781 28.59375 -74.625 C 25.96875 -71.707031 23.941406 -68.179688 22.515625 -64.046875 C 21.097656 -59.921875 20.390625 -55.554688 20.390625 -50.953125 C 20.390625 -46.128906 21.097656 -41.742188 22.515625 -37.796875 C 23.941406 -33.859375 25.96875 -30.390625 28.59375 -27.390625 C 31.226562 -24.398438 34.441406 -22.082031 38.234375 -20.4375 C 42.035156 -18.789062 46.347656 -17.96875 51.171875 -17.96875 C 55.921875 -17.96875 60.210938 -18.789062 64.046875 -20.4375 C 67.890625 -22.082031 71.160156 -24.398438 73.859375 -27.390625 C 76.566406 -30.390625 78.628906 -33.859375 80.046875 -37.796875 C 81.472656 -41.742188 82.1875 -46.128906 82.1875 -50.953125 Z M 82.1875 -50.953125 " />
            </g>
        </g>
        <g transform="translate(134.846452, 205.555259)">
            <g>
                <path
                    d="M 99.609375 -77.921875 C 96.910156 -79.234375 94.15625 -80.234375 91.34375 -80.921875 C 88.53125 -81.617188 85.296875 -81.96875 81.640625 -81.96875 C 76.597656 -81.96875 71.867188 -81.21875 67.453125 -79.71875 C 63.035156 -78.226562 59.21875 -75.984375 56 -72.984375 C 52.78125 -69.992188 50.273438 -66.25 48.484375 -61.75 C 46.703125 -57.257812 45.8125 -51.945312 45.8125 -45.8125 L 45.8125 -20.390625 L 68.71875 -20.390625 L 68.71875 0 L 0 0 L 0 -20.390625 L 23.125 -20.390625 L 23.125 -81.640625 L 0 -81.640625 L 0 -102.140625 L 45.8125 -102.140625 L 45.8125 -76.5 C 49.53125 -86.71875 55.023438 -93.945312 62.296875 -98.1875 C 69.566406 -102.425781 78.207031 -104.546875 88.21875 -104.546875 C 91.363281 -104.546875 94.648438 -104.21875 98.078125 -103.5625 C 101.515625 -102.90625 104.875 -101.734375 108.15625 -100.046875 Z M 99.609375 -77.921875 " />
            </g>
        </g>
        <g transform="translate(257.370621, 205.555259)">
            <g>
                <path
                    d="M 96.765625 0 L 74.078125 0 L 74.078125 -9.421875 C 69.691406 -5.546875 65.269531 -2.585938 60.8125 -0.546875 C 56.363281 1.492188 51.289062 2.515625 45.59375 2.515625 C 39.007812 2.515625 32.90625 1.203125 27.28125 -1.421875 C 21.65625 -4.054688 16.816406 -7.726562 12.765625 -12.4375 C 8.710938 -17.144531 5.535156 -22.785156 3.234375 -29.359375 C 0.929688 -35.941406 -0.21875 -43.140625 -0.21875 -50.953125 C -0.21875 -58.703125 0.929688 -65.878906 3.234375 -72.484375 C 5.535156 -79.097656 8.710938 -84.757812 12.765625 -89.46875 C 16.816406 -94.1875 21.65625 -97.878906 27.28125 -100.546875 C 32.90625 -103.210938 39.007812 -104.546875 45.59375 -104.546875 C 51.289062 -104.546875 56.363281 -103.578125 60.8125 -101.640625 C 65.269531 -99.703125 69.691406 -96.800781 74.078125 -92.9375 L 74.078125 -122.515625 L 54.359375 -122.515625 L 54.359375 -143.015625 L 96.765625 -143.015625 Z M 74.078125 -74.953125 C 71.378906 -77.953125 67.890625 -80.238281 63.609375 -81.8125 C 59.335938 -83.382812 55.265625 -84.171875 51.390625 -84.171875 C 42.847656 -84.171875 35.890625 -81.097656 30.515625 -74.953125 C 25.148438 -68.816406 22.46875 -60.816406 22.46875 -50.953125 C 22.46875 -41.097656 25.148438 -33.132812 30.515625 -27.0625 C 35.890625 -21 42.847656 -17.96875 51.390625 -17.96875 C 55.265625 -17.96875 59.335938 -18.753906 63.609375 -20.328125 C 67.890625 -21.898438 71.378906 -24.179688 74.078125 -27.171875 Z M 74.078125 -74.953125 " />
            </g>
        </g>
    </g>
    <g fill="#ffffff" fill-opacity="1">
        <g transform="translate(379.892564, 205.555259)">
            <g>
                <path
                    d="M 101.921875 0 L 72.546875 0 L 38.359375 -41.3125 L 28.0625 -30.796875 L 28.0625 0 L 5.375 0 L 5.375 -143.015625 L 28.0625 -143.015625 L 28.0625 -58.84375 L 68.9375 -102.140625 L 100.046875 -102.140625 L 52.9375 -55.234375 Z M 101.921875 0 " />
            </g>
        </g>
        <g transform="translate(502.416734, 205.555259)">
            <g>
                <path
                    d="M 64.875 -115.390625 L 37.265625 -115.390625 L 37.265625 -143.015625 L 64.875 -143.015625 Z M 85.703125 0 L 17.09375 0 L 17.09375 -20.390625 L 39.671875 -20.390625 L 39.671875 -81.640625 L 17.09375 -81.640625 L 17.09375 -102.140625 L 62.359375 -102.140625 L 62.359375 -20.390625 L 85.703125 -20.390625 Z M 85.703125 0 " />
            </g>
        </g>
        <g transform="translate(624.940903, 205.555259)">
            <g>
                <path
                    d="M 103.234375 -32.546875 C 102.066406 -21.804688 97.847656 -13.273438 90.578125 -6.953125 C 83.304688 -0.640625 74.226562 2.515625 63.34375 2.515625 C 57.351562 2.515625 51.875 1.53125 46.90625 -0.4375 C 41.9375 -2.40625 37.695312 -5.144531 34.1875 -8.65625 C 30.6875 -12.164062 27.96875 -16.382812 26.03125 -21.3125 C 24.09375 -26.25 23.125 -31.640625 23.125 -37.484375 L 23.125 -81.640625 L 0 -81.640625 L 0 -102.140625 L 23.125 -102.140625 L 23.125 -143.015625 L 45.8125 -143.015625 L 45.8125 -102.140625 L 88.65625 -102.140625 L 88.65625 -81.640625 L 45.8125 -81.640625 L 45.8125 -37.484375 C 45.8125 -30.898438 47.414062 -26 50.625 -22.78125 C 53.84375 -19.570312 58.082031 -17.96875 63.34375 -17.96875 C 69.769531 -17.96875 74.550781 -19.832031 77.6875 -23.5625 C 80.832031 -27.289062 82.695312 -31.785156 83.28125 -37.046875 Z M 103.234375 -32.546875 " />
            </g>
        </g>
    </g>
    <g fill="#4af626" fill-opacity="1">
        <g transform="translate(747.462847, 205.555259)">
            <g>
                <path d="M 0 20.390625 L 0 0 L 102.140625 0 L 102.140625 20.390625 Z M 0 20.390625 " />
            </g>
        </g>
    </g>
</svg>